<mxfile host="app.diagrams.net" modified="2023-07-03T14:00:35.318Z" agent="Mozilla/5.0 (X11; Linux x86_64) AppleWebKit/537.36 (KHTML, like Gecko) Chrome/112.0.0.0 YaBrowser/23.5.1.575 (beta) Yowser/2.5 Safari/537.36" etag="x720I_MeXmR-3a6a3vGr" version="21.5.1" type="github">
  <diagram name="Страница 1" id="5CQApdS8g01AgjQONouf">
    <mxGraphModel dx="10827" dy="5820" grid="1" gridSize="10" guides="1" tooltips="1" connect="1" arrows="1" fold="1" page="1" pageScale="1" pageWidth="827" pageHeight="1169" math="0" shadow="0">
      <root>
        <mxCell id="0" />
        <mxCell id="1" parent="0" />
        <mxCell id="rH8EMGYLZ3uxKnS-uDMB-5" value="" style="endArrow=none;html=1;rounded=0;strokeWidth=5;" edge="1" parent="1">
          <mxGeometry width="50" height="50" relative="1" as="geometry">
            <mxPoint x="-800" y="565" as="sourcePoint" />
            <mxPoint x="-360" y="565" as="targetPoint" />
            <Array as="points">
              <mxPoint x="-780" y="575" />
              <mxPoint x="-740" y="575" />
              <mxPoint x="-720" y="565" />
              <mxPoint x="-680" y="605" />
              <mxPoint x="-630" y="605" />
              <mxPoint x="-610" y="595" />
              <mxPoint x="-580" y="595" />
              <mxPoint x="-550" y="595" />
              <mxPoint x="-530" y="605" />
              <mxPoint x="-480" y="605" />
              <mxPoint x="-440" y="565" />
              <mxPoint x="-420" y="575" />
              <mxPoint x="-380" y="575" />
            </Array>
          </mxGeometry>
        </mxCell>
        <mxCell id="rH8EMGYLZ3uxKnS-uDMB-7" value="" style="rounded=0;whiteSpace=wrap;html=1;" vertex="1" parent="1">
          <mxGeometry x="-800" y="450" width="7874" height="98.425" as="geometry" />
        </mxCell>
        <mxCell id="rH8EMGYLZ3uxKnS-uDMB-10" value="" style="endArrow=none;html=1;rounded=0;strokeWidth=5;" edge="1" parent="1">
          <mxGeometry width="50" height="50" relative="1" as="geometry">
            <mxPoint y="440" as="sourcePoint" />
            <mxPoint x="-440" y="440" as="targetPoint" />
            <Array as="points">
              <mxPoint x="-20" y="430" />
              <mxPoint x="-60" y="430" />
              <mxPoint x="-80" y="440" />
              <mxPoint x="-120" y="400" />
              <mxPoint x="-170" y="400" />
              <mxPoint x="-190" y="410" />
              <mxPoint x="-220" y="410" />
              <mxPoint x="-250" y="410" />
              <mxPoint x="-270" y="400" />
              <mxPoint x="-320" y="400" />
              <mxPoint x="-360" y="440" />
              <mxPoint x="-380" y="430" />
              <mxPoint x="-420" y="430" />
            </Array>
          </mxGeometry>
        </mxCell>
        <mxCell id="rH8EMGYLZ3uxKnS-uDMB-15" value="" style="endArrow=none;html=1;rounded=0;strokeWidth=5;" edge="1" parent="1">
          <mxGeometry width="50" height="50" relative="1" as="geometry">
            <mxPoint x="720" y="440" as="sourcePoint" />
            <mxPoint x="280" y="440" as="targetPoint" />
            <Array as="points">
              <mxPoint x="700" y="430" />
              <mxPoint x="660" y="430" />
              <mxPoint x="640" y="440" />
              <mxPoint x="600" y="400" />
              <mxPoint x="550" y="400" />
              <mxPoint x="530" y="410" />
              <mxPoint x="500" y="410" />
              <mxPoint x="470" y="410" />
              <mxPoint x="450" y="400" />
              <mxPoint x="400" y="400" />
              <mxPoint x="360" y="440" />
              <mxPoint x="340" y="430" />
              <mxPoint x="300" y="430" />
            </Array>
          </mxGeometry>
        </mxCell>
        <mxCell id="rH8EMGYLZ3uxKnS-uDMB-16" value="" style="endArrow=none;html=1;rounded=0;strokeWidth=5;" edge="1" parent="1">
          <mxGeometry width="50" height="50" relative="1" as="geometry">
            <mxPoint x="-80" y="560" as="sourcePoint" />
            <mxPoint x="360" y="560" as="targetPoint" />
            <Array as="points">
              <mxPoint x="-60" y="570" />
              <mxPoint x="-20" y="570" />
              <mxPoint y="560" />
              <mxPoint x="40" y="600" />
              <mxPoint x="90" y="600" />
              <mxPoint x="110" y="590" />
              <mxPoint x="140" y="590" />
              <mxPoint x="170" y="590" />
              <mxPoint x="190" y="600" />
              <mxPoint x="240" y="600" />
              <mxPoint x="280" y="560" />
              <mxPoint x="300" y="570" />
              <mxPoint x="340" y="570" />
            </Array>
          </mxGeometry>
        </mxCell>
        <mxCell id="rH8EMGYLZ3uxKnS-uDMB-17" value="" style="endArrow=none;html=1;rounded=0;strokeWidth=5;" edge="1" parent="1">
          <mxGeometry width="50" height="50" relative="1" as="geometry">
            <mxPoint x="640" y="560" as="sourcePoint" />
            <mxPoint x="1080" y="560" as="targetPoint" />
            <Array as="points">
              <mxPoint x="660" y="570" />
              <mxPoint x="700" y="570" />
              <mxPoint x="720" y="560" />
              <mxPoint x="760" y="600" />
              <mxPoint x="810" y="600" />
              <mxPoint x="830" y="590" />
              <mxPoint x="860" y="590" />
              <mxPoint x="890" y="590" />
              <mxPoint x="910" y="600" />
              <mxPoint x="960" y="600" />
              <mxPoint x="1000" y="560" />
              <mxPoint x="1020" y="570" />
              <mxPoint x="1060" y="570" />
            </Array>
          </mxGeometry>
        </mxCell>
        <mxCell id="rH8EMGYLZ3uxKnS-uDMB-18" value="" style="endArrow=none;html=1;rounded=0;strokeWidth=5;" edge="1" parent="1">
          <mxGeometry width="50" height="50" relative="1" as="geometry">
            <mxPoint x="1360" y="559.21" as="sourcePoint" />
            <mxPoint x="1800" y="559.21" as="targetPoint" />
            <Array as="points">
              <mxPoint x="1380" y="569.21" />
              <mxPoint x="1420" y="569.21" />
              <mxPoint x="1440" y="559.21" />
              <mxPoint x="1480" y="599.21" />
              <mxPoint x="1530" y="599.21" />
              <mxPoint x="1550" y="589.21" />
              <mxPoint x="1580" y="589.21" />
              <mxPoint x="1610" y="589.21" />
              <mxPoint x="1630" y="599.21" />
              <mxPoint x="1680" y="599.21" />
              <mxPoint x="1720" y="559.21" />
              <mxPoint x="1740" y="569.21" />
              <mxPoint x="1780" y="569.21" />
            </Array>
          </mxGeometry>
        </mxCell>
        <mxCell id="rH8EMGYLZ3uxKnS-uDMB-19" value="" style="endArrow=none;html=1;rounded=0;strokeWidth=5;" edge="1" parent="1">
          <mxGeometry width="50" height="50" relative="1" as="geometry">
            <mxPoint x="1440" y="439.21" as="sourcePoint" />
            <mxPoint x="1000" y="439.21" as="targetPoint" />
            <Array as="points">
              <mxPoint x="1420" y="429.21" />
              <mxPoint x="1380" y="429.21" />
              <mxPoint x="1360" y="439.21" />
              <mxPoint x="1320" y="399.21" />
              <mxPoint x="1270" y="399.21" />
              <mxPoint x="1250" y="409.21" />
              <mxPoint x="1220" y="409.21" />
              <mxPoint x="1190" y="409.21" />
              <mxPoint x="1170" y="399.21" />
              <mxPoint x="1120" y="399.21" />
              <mxPoint x="1080" y="439.21" />
              <mxPoint x="1060" y="429.21" />
              <mxPoint x="1020" y="429.21" />
            </Array>
          </mxGeometry>
        </mxCell>
        <mxCell id="rH8EMGYLZ3uxKnS-uDMB-20" value="" style="endArrow=none;html=1;rounded=0;strokeWidth=5;" edge="1" parent="1">
          <mxGeometry width="50" height="50" relative="1" as="geometry">
            <mxPoint x="2080" y="559.21" as="sourcePoint" />
            <mxPoint x="2520" y="559.21" as="targetPoint" />
            <Array as="points">
              <mxPoint x="2100" y="569.21" />
              <mxPoint x="2140" y="569.21" />
              <mxPoint x="2160" y="559.21" />
              <mxPoint x="2200" y="599.21" />
              <mxPoint x="2250" y="599.21" />
              <mxPoint x="2270" y="589.21" />
              <mxPoint x="2300" y="589.21" />
              <mxPoint x="2330" y="589.21" />
              <mxPoint x="2350" y="599.21" />
              <mxPoint x="2400" y="599.21" />
              <mxPoint x="2440" y="559.21" />
              <mxPoint x="2460" y="569.21" />
              <mxPoint x="2500" y="569.21" />
            </Array>
          </mxGeometry>
        </mxCell>
        <mxCell id="rH8EMGYLZ3uxKnS-uDMB-21" value="" style="endArrow=none;html=1;rounded=0;strokeWidth=5;" edge="1" parent="1">
          <mxGeometry width="50" height="50" relative="1" as="geometry">
            <mxPoint x="2160" y="439.21" as="sourcePoint" />
            <mxPoint x="1720" y="439.21" as="targetPoint" />
            <Array as="points">
              <mxPoint x="2140" y="429.21" />
              <mxPoint x="2100" y="429.21" />
              <mxPoint x="2080" y="439.21" />
              <mxPoint x="2040" y="399.21" />
              <mxPoint x="1990" y="399.21" />
              <mxPoint x="1970" y="409.21" />
              <mxPoint x="1940" y="409.21" />
              <mxPoint x="1910" y="409.21" />
              <mxPoint x="1890" y="399.21" />
              <mxPoint x="1840" y="399.21" />
              <mxPoint x="1800" y="439.21" />
              <mxPoint x="1780" y="429.21" />
              <mxPoint x="1740" y="429.21" />
            </Array>
          </mxGeometry>
        </mxCell>
        <mxCell id="rH8EMGYLZ3uxKnS-uDMB-22" value="" style="endArrow=none;html=1;rounded=0;strokeWidth=5;" edge="1" parent="1">
          <mxGeometry width="50" height="50" relative="1" as="geometry">
            <mxPoint x="4240" y="558.82" as="sourcePoint" />
            <mxPoint x="4680" y="558.82" as="targetPoint" />
            <Array as="points">
              <mxPoint x="4260" y="568.82" />
              <mxPoint x="4300" y="568.82" />
              <mxPoint x="4320" y="558.82" />
              <mxPoint x="4360" y="598.82" />
              <mxPoint x="4410" y="598.82" />
              <mxPoint x="4430" y="588.82" />
              <mxPoint x="4460" y="588.82" />
              <mxPoint x="4490" y="588.82" />
              <mxPoint x="4510" y="598.82" />
              <mxPoint x="4560" y="598.82" />
              <mxPoint x="4600" y="558.82" />
              <mxPoint x="4620" y="568.82" />
              <mxPoint x="4660" y="568.82" />
            </Array>
          </mxGeometry>
        </mxCell>
        <mxCell id="rH8EMGYLZ3uxKnS-uDMB-23" value="" style="endArrow=none;html=1;rounded=0;strokeWidth=5;" edge="1" parent="1">
          <mxGeometry width="50" height="50" relative="1" as="geometry">
            <mxPoint x="4320" y="438.82" as="sourcePoint" />
            <mxPoint x="3880" y="438.82" as="targetPoint" />
            <Array as="points">
              <mxPoint x="4300" y="428.82" />
              <mxPoint x="4260" y="428.82" />
              <mxPoint x="4240" y="438.82" />
              <mxPoint x="4200" y="398.82" />
              <mxPoint x="4150" y="398.82" />
              <mxPoint x="4130" y="408.82" />
              <mxPoint x="4100" y="408.82" />
              <mxPoint x="4070" y="408.82" />
              <mxPoint x="4050" y="398.82" />
              <mxPoint x="4000" y="398.82" />
              <mxPoint x="3960" y="438.82" />
              <mxPoint x="3940" y="428.82" />
              <mxPoint x="3900" y="428.82" />
            </Array>
          </mxGeometry>
        </mxCell>
        <mxCell id="rH8EMGYLZ3uxKnS-uDMB-24" value="" style="endArrow=none;html=1;rounded=0;strokeWidth=5;" edge="1" parent="1">
          <mxGeometry width="50" height="50" relative="1" as="geometry">
            <mxPoint x="3520" y="558.82" as="sourcePoint" />
            <mxPoint x="3960" y="558.82" as="targetPoint" />
            <Array as="points">
              <mxPoint x="3540" y="568.82" />
              <mxPoint x="3580" y="568.82" />
              <mxPoint x="3600" y="558.82" />
              <mxPoint x="3640" y="598.82" />
              <mxPoint x="3690" y="598.82" />
              <mxPoint x="3710" y="588.82" />
              <mxPoint x="3740" y="588.82" />
              <mxPoint x="3770" y="588.82" />
              <mxPoint x="3790" y="598.82" />
              <mxPoint x="3840" y="598.82" />
              <mxPoint x="3880" y="558.82" />
              <mxPoint x="3900" y="568.82" />
              <mxPoint x="3940" y="568.82" />
            </Array>
          </mxGeometry>
        </mxCell>
        <mxCell id="rH8EMGYLZ3uxKnS-uDMB-25" value="" style="endArrow=none;html=1;rounded=0;strokeWidth=5;" edge="1" parent="1">
          <mxGeometry width="50" height="50" relative="1" as="geometry">
            <mxPoint x="3600" y="438.82" as="sourcePoint" />
            <mxPoint x="3160" y="438.82" as="targetPoint" />
            <Array as="points">
              <mxPoint x="3580" y="428.82" />
              <mxPoint x="3540" y="428.82" />
              <mxPoint x="3520" y="438.82" />
              <mxPoint x="3480" y="398.82" />
              <mxPoint x="3430" y="398.82" />
              <mxPoint x="3410" y="408.82" />
              <mxPoint x="3380" y="408.82" />
              <mxPoint x="3350" y="408.82" />
              <mxPoint x="3330" y="398.82" />
              <mxPoint x="3280" y="398.82" />
              <mxPoint x="3240" y="438.82" />
              <mxPoint x="3220" y="428.82" />
              <mxPoint x="3180" y="428.82" />
            </Array>
          </mxGeometry>
        </mxCell>
        <mxCell id="rH8EMGYLZ3uxKnS-uDMB-26" value="" style="endArrow=none;html=1;rounded=0;strokeWidth=5;" edge="1" parent="1">
          <mxGeometry width="50" height="50" relative="1" as="geometry">
            <mxPoint x="2800" y="559.61" as="sourcePoint" />
            <mxPoint x="3240" y="559.61" as="targetPoint" />
            <Array as="points">
              <mxPoint x="2820" y="569.61" />
              <mxPoint x="2860" y="569.61" />
              <mxPoint x="2880" y="559.61" />
              <mxPoint x="2920" y="599.61" />
              <mxPoint x="2970" y="599.61" />
              <mxPoint x="2990" y="589.61" />
              <mxPoint x="3020" y="589.61" />
              <mxPoint x="3050" y="589.61" />
              <mxPoint x="3070" y="599.61" />
              <mxPoint x="3120" y="599.61" />
              <mxPoint x="3160" y="559.61" />
              <mxPoint x="3180" y="569.61" />
              <mxPoint x="3220" y="569.61" />
            </Array>
          </mxGeometry>
        </mxCell>
        <mxCell id="rH8EMGYLZ3uxKnS-uDMB-27" value="" style="endArrow=none;html=1;rounded=0;strokeWidth=5;" edge="1" parent="1">
          <mxGeometry width="50" height="50" relative="1" as="geometry">
            <mxPoint x="2880" y="439.61" as="sourcePoint" />
            <mxPoint x="2440" y="439.61" as="targetPoint" />
            <Array as="points">
              <mxPoint x="2860" y="429.61" />
              <mxPoint x="2820" y="429.61" />
              <mxPoint x="2800" y="439.61" />
              <mxPoint x="2760" y="399.61" />
              <mxPoint x="2710" y="399.61" />
              <mxPoint x="2690" y="409.61" />
              <mxPoint x="2660" y="409.61" />
              <mxPoint x="2630" y="409.61" />
              <mxPoint x="2610" y="399.61" />
              <mxPoint x="2560" y="399.61" />
              <mxPoint x="2520" y="439.61" />
              <mxPoint x="2500" y="429.61" />
              <mxPoint x="2460" y="429.61" />
            </Array>
          </mxGeometry>
        </mxCell>
        <mxCell id="rH8EMGYLZ3uxKnS-uDMB-29" value="" style="endArrow=none;html=1;rounded=0;strokeWidth=5;" edge="1" parent="1">
          <mxGeometry width="50" height="50" relative="1" as="geometry">
            <mxPoint x="7210" y="438.82" as="sourcePoint" />
            <mxPoint x="6770" y="438.82" as="targetPoint" />
            <Array as="points">
              <mxPoint x="7190" y="428.82" />
              <mxPoint x="7150" y="428.82" />
              <mxPoint x="7130" y="438.82" />
              <mxPoint x="7090" y="398.82" />
              <mxPoint x="7040" y="398.82" />
              <mxPoint x="7020" y="408.82" />
              <mxPoint x="6990" y="408.82" />
              <mxPoint x="6960" y="408.82" />
              <mxPoint x="6940" y="398.82" />
              <mxPoint x="6890" y="398.82" />
              <mxPoint x="6850" y="438.82" />
              <mxPoint x="6830" y="428.82" />
              <mxPoint x="6790" y="428.82" />
            </Array>
          </mxGeometry>
        </mxCell>
        <mxCell id="rH8EMGYLZ3uxKnS-uDMB-30" value="" style="endArrow=none;html=1;rounded=0;strokeWidth=5;" edge="1" parent="1">
          <mxGeometry width="50" height="50" relative="1" as="geometry">
            <mxPoint x="6410" y="558.82" as="sourcePoint" />
            <mxPoint x="6850" y="558.82" as="targetPoint" />
            <Array as="points">
              <mxPoint x="6430" y="568.82" />
              <mxPoint x="6470" y="568.82" />
              <mxPoint x="6490" y="558.82" />
              <mxPoint x="6530" y="598.82" />
              <mxPoint x="6580" y="598.82" />
              <mxPoint x="6600" y="588.82" />
              <mxPoint x="6630" y="588.82" />
              <mxPoint x="6660" y="588.82" />
              <mxPoint x="6680" y="598.82" />
              <mxPoint x="6730" y="598.82" />
              <mxPoint x="6770" y="558.82" />
              <mxPoint x="6790" y="568.82" />
              <mxPoint x="6830" y="568.82" />
            </Array>
          </mxGeometry>
        </mxCell>
        <mxCell id="rH8EMGYLZ3uxKnS-uDMB-31" value="" style="endArrow=none;html=1;rounded=0;strokeWidth=5;" edge="1" parent="1">
          <mxGeometry width="50" height="50" relative="1" as="geometry">
            <mxPoint x="6490" y="438.82" as="sourcePoint" />
            <mxPoint x="6050" y="438.82" as="targetPoint" />
            <Array as="points">
              <mxPoint x="6470" y="428.82" />
              <mxPoint x="6430" y="428.82" />
              <mxPoint x="6410" y="438.82" />
              <mxPoint x="6370" y="398.82" />
              <mxPoint x="6320" y="398.82" />
              <mxPoint x="6300" y="408.82" />
              <mxPoint x="6270" y="408.82" />
              <mxPoint x="6240" y="408.82" />
              <mxPoint x="6220" y="398.82" />
              <mxPoint x="6170" y="398.82" />
              <mxPoint x="6130" y="438.82" />
              <mxPoint x="6110" y="428.82" />
              <mxPoint x="6070" y="428.82" />
            </Array>
          </mxGeometry>
        </mxCell>
        <mxCell id="rH8EMGYLZ3uxKnS-uDMB-32" value="" style="endArrow=none;html=1;rounded=0;strokeWidth=5;" edge="1" parent="1">
          <mxGeometry width="50" height="50" relative="1" as="geometry">
            <mxPoint x="5690" y="559.61" as="sourcePoint" />
            <mxPoint x="6130" y="559.61" as="targetPoint" />
            <Array as="points">
              <mxPoint x="5710" y="569.61" />
              <mxPoint x="5750" y="569.61" />
              <mxPoint x="5770" y="559.61" />
              <mxPoint x="5810" y="599.61" />
              <mxPoint x="5860" y="599.61" />
              <mxPoint x="5880" y="589.61" />
              <mxPoint x="5910" y="589.61" />
              <mxPoint x="5940" y="589.61" />
              <mxPoint x="5960" y="599.61" />
              <mxPoint x="6010" y="599.61" />
              <mxPoint x="6050" y="559.61" />
              <mxPoint x="6070" y="569.61" />
              <mxPoint x="6110" y="569.61" />
            </Array>
          </mxGeometry>
        </mxCell>
        <mxCell id="rH8EMGYLZ3uxKnS-uDMB-33" value="" style="endArrow=none;html=1;rounded=0;strokeWidth=5;" edge="1" parent="1">
          <mxGeometry width="50" height="50" relative="1" as="geometry">
            <mxPoint x="5770" y="439.61" as="sourcePoint" />
            <mxPoint x="5330" y="439.61" as="targetPoint" />
            <Array as="points">
              <mxPoint x="5750" y="429.61" />
              <mxPoint x="5710" y="429.61" />
              <mxPoint x="5690" y="439.61" />
              <mxPoint x="5650" y="399.61" />
              <mxPoint x="5600" y="399.61" />
              <mxPoint x="5580" y="409.61" />
              <mxPoint x="5550" y="409.61" />
              <mxPoint x="5520" y="409.61" />
              <mxPoint x="5500" y="399.61" />
              <mxPoint x="5450" y="399.61" />
              <mxPoint x="5410" y="439.61" />
              <mxPoint x="5390" y="429.61" />
              <mxPoint x="5350" y="429.61" />
            </Array>
          </mxGeometry>
        </mxCell>
        <mxCell id="rH8EMGYLZ3uxKnS-uDMB-34" value="" style="endArrow=none;html=1;rounded=0;strokeWidth=5;" edge="1" parent="1">
          <mxGeometry width="50" height="50" relative="1" as="geometry">
            <mxPoint x="4970" y="559.21" as="sourcePoint" />
            <mxPoint x="5410" y="559.21" as="targetPoint" />
            <Array as="points">
              <mxPoint x="4990" y="569.21" />
              <mxPoint x="5030" y="569.21" />
              <mxPoint x="5050" y="559.21" />
              <mxPoint x="5090" y="599.21" />
              <mxPoint x="5140" y="599.21" />
              <mxPoint x="5160" y="589.21" />
              <mxPoint x="5190" y="589.21" />
              <mxPoint x="5220" y="589.21" />
              <mxPoint x="5240" y="599.21" />
              <mxPoint x="5290" y="599.21" />
              <mxPoint x="5330" y="559.21" />
              <mxPoint x="5350" y="569.21" />
              <mxPoint x="5390" y="569.21" />
            </Array>
          </mxGeometry>
        </mxCell>
        <mxCell id="rH8EMGYLZ3uxKnS-uDMB-35" value="" style="endArrow=none;html=1;rounded=0;strokeWidth=5;" edge="1" parent="1">
          <mxGeometry width="50" height="50" relative="1" as="geometry">
            <mxPoint x="5050" y="439.21" as="sourcePoint" />
            <mxPoint x="4610" y="439.21" as="targetPoint" />
            <Array as="points">
              <mxPoint x="5030" y="429.21" />
              <mxPoint x="4990" y="429.21" />
              <mxPoint x="4970" y="439.21" />
              <mxPoint x="4930" y="399.21" />
              <mxPoint x="4880" y="399.21" />
              <mxPoint x="4860" y="409.21" />
              <mxPoint x="4830" y="409.21" />
              <mxPoint x="4800" y="409.21" />
              <mxPoint x="4780" y="399.21" />
              <mxPoint x="4730" y="399.21" />
              <mxPoint x="4690" y="439.21" />
              <mxPoint x="4670" y="429.21" />
              <mxPoint x="4630" y="429.21" />
            </Array>
          </mxGeometry>
        </mxCell>
      </root>
    </mxGraphModel>
  </diagram>
</mxfile>
